<svg width="24" height="24" xmlns="http://www.w3.org/2000/svg"><g fill="none" fill-rule="evenodd"><path d="M12 14c2.667-3.667 4-6.333 4-8 0-2.5-1.5-4-4-4S8 3.5 8 6c0 1.667 1.333 4.333 4 8Z" stroke="#FFF" stroke-width="3"/><path stroke="#FFF" stroke-width="3" stroke-linejoin="round" d="M3 8.579 8.85 7l6.3 3.158L21 8.579v11.842L15.15 22l-6.3-3.158L3 20.421z"/><path stroke="#000" stroke-width="1.5" fill="#FFF" stroke-linejoin="round" d="M3 8.579 8.85 7l6.3 3.158L21 8.579v11.842L15.15 22l-6.3-3.158L3 20.421z"/><path stroke="#000" d="M8.85 7v11.842M15.15 10.158V22"/><path d="M12 14c2.667-3.667 4-6.333 4-8 0-2.5-1.5-4-4-4S8 3.5 8 6c0 1.667 1.333 4.333 4 8Z" stroke="#000" stroke-width="1.5" fill="#FFF"/><path d="M12 7.5a1.5 1.5 0 1 0 0-3 1.5 1.5 0 0 0 0 3Z" fill="#000"/></g></svg>