<?xml version="1.0" encoding="UTF-8"?>
<svg width="24px" height="24px" viewBox="0 0 24 24" version="1.1" xmlns="http://www.w3.org/2000/svg" xmlns:xlink="http://www.w3.org/1999/xlink">
    <title>visibility-members</title>
    <g id="visibility-members" stroke="none" stroke-width="1" fill="none" fill-rule="evenodd">
        <path d="M18,1.75 C19.5629662,1.75 20.8372011,2.24140291 21.740166,3.09944461 C22.6494674,3.96350765 23.1928562,5.20838033 23.245758,6.75068816 L23.245758,6.75068816 L23.2504994,11.5 L20.75,11.5 L20.75,7 C20.75,6.11755189 20.5243509,5.4171179 20.0536165,4.94638348 C19.5828821,4.47564905 18.8824481,4.25 18,4.25 C17.1463999,4.25 16.4635142,4.46095644 15.9935069,4.90079697 C15.5291988,5.33530416 15.2880413,5.98203287 15.2541299,6.79797892 L15.2541299,6.79797892 L15.2506452,9.5 L16,9.5 C16.6903559,9.5 17.3153559,9.77982203 17.767767,10.232233 C18.220178,10.6846441 18.5,11.3096441 18.5,12 L18.5,12 L18.5,20 C18.5,20.6903559 18.220178,21.3153559 17.767767,21.767767 C17.3153559,22.220178 16.6903559,22.5 16,22.5 L16,22.5 L4,22.5 C3.30964406,22.5 2.68464406,22.220178 2.23223305,21.767767 C1.77982203,21.3153559 1.5,20.6903559 1.5,20 L1.5,20 L1.5,12 C1.5,11.3096441 1.77982203,10.6846441 2.23223305,10.232233 C2.68464406,9.77982203 3.30964406,9.5 4,9.5 L4,9.5 L12.75,9.5 L12.75,7 C12.75,5.38951356 13.2714637,4.08576937 14.1786165,3.17861652 C15.0857694,2.27146368 16.3895136,1.75 18,1.75 L18,1.75 Z" id="background" stroke="#FFFFFF" fill="#FFFFFF"></path>
        <rect id="padlock" stroke="#000000" stroke-width="1.5" x="2.75" y="10.75" width="14.5" height="10.5" rx="2"></rect>
        <path d="M14,11 C14,10 14,8.66666667 14,7 C14,4.5 15.5,3 18,3 C20.5,3 22,4.5 22,7 C22,8.66666667 22,10 22,11" id="top-bit" stroke="#000000" stroke-width="1.5"></path>
    </g>
</svg>