<?xml version="1.0" encoding="UTF-8"?>
<svg width="24px" height="24px" viewBox="0 0 24 24" version="1.1" xmlns="http://www.w3.org/2000/svg" xmlns:xlink="http://www.w3.org/1999/xlink">
    <title>visibility-public</title>
    <g id="visibility-public" stroke="none" stroke-width="1" fill="none" fill-rule="evenodd">
        <path d="M12,1.25 C17.9370611,1.25 22.75,6.06293894 22.75,12 C22.75,17.9370611 17.9370611,22.75 12,22.75 C6.06293894,22.75 1.25,17.9370611 1.25,12 C1.25,6.06293894 6.06293894,1.25 12,1.25 Z M7.92362226,17.8372094 C8.74066331,19.424477 9.80707736,20.6314664 10.8415604,21.1781582 C11.0588661,21.205318 11.278758,21.2249494 11.5007264,21.2367554 L11.5,17.994 L11.3794298,17.993157 L10.6875215,17.9753033 L9.92811655,17.9461724 L9.10505607,17.9062757 L8.16708471,17.8527696 Z M16.067086,17.8552233 L15.1954535,17.9043465 L14.4659253,17.9384986 L13.4564504,17.9755 L12.839982,17.9906816 L12.5,17.995 L12.5002675,21.2367024 C12.7218984,21.2248907 12.9414586,21.2052774 13.1586783,21.1781322 C14.1890056,20.6335364 15.2512613,19.4336079 16.067086,17.8552233 Z M19.3376534,17.6329331 L19.0387213,17.6567991 L17.6556808,17.7563775 L17.2100421,17.7861582 C16.7007949,18.882055 16.0726309,19.8456537 15.3848865,20.6112751 C16.9591893,19.9917552 18.3225911,18.9532141 19.3376534,17.6329331 Z M4.63553787,17.5978913 C5.65334641,18.9348399 7.02690934,19.9862864 8.61506691,20.611071 C7.92215615,19.8398505 7.2896858,18.8674359 6.77839846,17.7612154 L5.45352266,17.6632521 Z M11.5,12.5 L6.51041261,12.5003556 C6.57418043,14.0370601 6.92660377,15.5106524 7.45055934,16.8045443 L8.22761438,16.8546031 L9.15602503,16.9075723 L9.96742743,16.9469291 L10.7146883,16.9756518 L11.3936112,16.9932471 C11.4298614,16.9939158 11.4657661,16.9945291 11.501322,16.9950867 L11.5,12.5 Z M17.4895874,12.5003556 L12.5,12.5 L12.5,16.995 L12.8273148,16.9907489 L13.7571159,16.9653275 L14.7893336,16.9229537 L15.9238982,16.8636237 L16.5409687,16.8254133 C17.0695956,15.5265074 17.4254765,14.045328 17.4895874,12.5003556 Z M21.2367024,12.5002675 L18.4903644,12.5007632 C18.4328708,13.9985735 18.1211699,15.4476569 17.6382622,16.7561409 L18.0420876,16.7270497 L19.4492367,16.6224845 L20.0412264,16.5750068 C20.7329162,15.3618789 21.1579985,13.9770422 21.2367024,12.5002675 Z M5.50963559,12.5007632 L2.76329756,12.5002675 C2.84113655,13.9608128 3.25778256,15.3314298 3.93606583,16.5349488 L5.53085234,16.6662463 L6.35107429,16.7271482 C5.87424321,15.4262658 5.56670487,13.9875197 5.50963559,12.5007632 Z M6.35144107,7.2718513 L5.53085234,7.33297552 L3.93663117,7.46404821 C3.25786019,8.66808163 2.84096914,10.0394032 2.76324465,11.5007264 L5.50959731,11.500235 C5.56658183,10.0127431 5.87429418,8.57328758 6.35144107,7.2718513 Z M11.3936112,7.00597471 L10.7146883,7.02357003 L9.96742743,7.05229272 L9.15602503,7.09164957 L8.22761438,7.14461873 L7.45115013,7.19399701 C6.92678846,8.48843806 6.57409645,9.96281365 6.51038334,11.5003502 L11.5,11.5 L11.501322,7.00413514 C11.4657661,7.00469272 11.4298614,7.00530605 11.3936112,7.00597471 Z M12.5,7.003 L12.5,11.5 L17.4896167,11.5003502 C17.4255583,9.95448309 17.0693812,8.47246323 16.5403116,7.17297257 L15.9238982,7.1355981 L14.7893336,7.07626816 L13.7571159,7.0338944 L12.8273148,7.00847296 L12.5,7.003 Z M18.4904027,11.500235 L21.2367554,11.5007264 C21.1581676,10.0231734 20.7328378,8.63763226 20.0406562,7.42399334 L19.4492367,7.37673738 L18.0420876,7.27217217 L17.6382622,7.24385908 C18.1212772,8.55263375 18.4330093,10.0020703 18.4904027,11.500235 Z M8.61511347,3.38872487 L8.45782889,3.45246877 C6.93662182,4.08357876 5.6202854,5.10895172 4.63630157,6.4011057 L5.45352266,6.33596979 L6.77886005,6.23778604 C7.29006644,5.13197892 7.92236467,4.15991742 8.61511347,3.38872487 Z M15.3849331,3.38892901 L15.4256254,3.434387 C16.0972258,4.19228209 16.7104879,5.13903512 17.2095788,6.21284502 L17.6556808,6.24284434 L19.0387213,6.34242274 L19.336885,6.36606763 C18.3219032,5.04626185 16.9587921,4.00808855 15.3849331,3.38892901 Z M11.5007264,2.76324465 C11.278075,2.77508698 11.0575129,2.79480287 10.8393135,2.82211897 C9.80571351,3.37014642 8.74033268,4.57635634 7.92389316,6.16226433 L8.16708471,6.14645221 L9.10505607,6.09294619 L9.92811655,6.05304943 L10.6875215,6.0239185 L11.3794298,6.00606487 L11.5,6.004 Z M12.5002675,2.76329756 L12.5,6.003 L12.839982,6.00854027 L13.4564504,6.0237218 L14.4659253,6.06072324 L15.1954535,6.09487532 L16.0668793,6.14437669 C15.2516495,4.5672875 14.1903966,3.36808738 13.1605907,2.82297947 C12.9428118,2.79484352 12.7225814,2.77514567 12.5002675,2.76329756 Z" id="Combined-Shape" stroke="#FFFFFF" stroke-width="2" fill-rule="nonzero"></path>
        <path d="M12,1.25 C17.9370611,1.25 22.75,6.06293894 22.75,12 C22.75,17.9370611 17.9370611,22.75 12,22.75 C6.06293894,22.75 1.25,17.9370611 1.25,12 C1.25,6.06293894 6.06293894,1.25 12,1.25 Z M7.92362226,17.8372094 C8.74066331,19.424477 9.80707736,20.6314664 10.8415604,21.1781582 C11.0588661,21.205318 11.278758,21.2249494 11.5007264,21.2367554 L11.5,17.994 L11.3794298,17.993157 L10.6875215,17.9753033 L9.92811655,17.9461724 L9.10505607,17.9062757 L8.16708471,17.8527696 Z M16.067086,17.8552233 L15.1954535,17.9043465 L14.4659253,17.9384986 L13.4564504,17.9755 L12.839982,17.9906816 L12.5,17.995 L12.5002675,21.2367024 C12.7218984,21.2248907 12.9414586,21.2052774 13.1586783,21.1781322 C14.1890056,20.6335364 15.2512613,19.4336079 16.067086,17.8552233 Z M19.3376534,17.6329331 L19.0387213,17.6567991 L17.6556808,17.7563775 L17.2100421,17.7861582 C16.7007949,18.882055 16.0726309,19.8456537 15.3848865,20.6112751 C16.9591893,19.9917552 18.3225911,18.9532141 19.3376534,17.6329331 Z M4.63553787,17.5978913 C5.65334641,18.9348399 7.02690934,19.9862864 8.61506691,20.611071 C7.92215615,19.8398505 7.2896858,18.8674359 6.77839846,17.7612154 L5.45352266,17.6632521 Z M11.5,12.5 L6.51041261,12.5003556 C6.57418043,14.0370601 6.92660377,15.5106524 7.45055934,16.8045443 L8.22761438,16.8546031 L9.15602503,16.9075723 L9.96742743,16.9469291 L10.7146883,16.9756518 L11.3936112,16.9932471 C11.4298614,16.9939158 11.4657661,16.9945291 11.501322,16.9950867 L11.5,12.5 Z M17.4895874,12.5003556 L12.5,12.5 L12.5,16.995 L12.8273148,16.9907489 L13.7571159,16.9653275 L14.7893336,16.9229537 L15.9238982,16.8636237 L16.5409687,16.8254133 C17.0695956,15.5265074 17.4254765,14.045328 17.4895874,12.5003556 Z M21.2367024,12.5002675 L18.4903644,12.5007632 C18.4328708,13.9985735 18.1211699,15.4476569 17.6382622,16.7561409 L18.0420876,16.7270497 L19.4492367,16.6224845 L20.0412264,16.5750068 C20.7329162,15.3618789 21.1579985,13.9770422 21.2367024,12.5002675 Z M5.50963559,12.5007632 L2.76329756,12.5002675 C2.84113655,13.9608128 3.25778256,15.3314298 3.93606583,16.5349488 L5.53085234,16.6662463 L6.35107429,16.7271482 C5.87424321,15.4262658 5.56670487,13.9875197 5.50963559,12.5007632 Z M6.35144107,7.2718513 L5.53085234,7.33297552 L3.93663117,7.46404821 C3.25786019,8.66808163 2.84096914,10.0394032 2.76324465,11.5007264 L5.50959731,11.500235 C5.56658183,10.0127431 5.87429418,8.57328758 6.35144107,7.2718513 Z M11.3936112,7.00597471 L10.7146883,7.02357003 L9.96742743,7.05229272 L9.15602503,7.09164957 L8.22761438,7.14461873 L7.45115013,7.19399701 C6.92678846,8.48843806 6.57409645,9.96281365 6.51038334,11.5003502 L11.5,11.5 L11.501322,7.00413514 C11.4657661,7.00469272 11.4298614,7.00530605 11.3936112,7.00597471 Z M12.5,7.003 L12.5,11.5 L17.4896167,11.5003502 C17.4255583,9.95448309 17.0693812,8.47246323 16.5403116,7.17297257 L15.9238982,7.1355981 L14.7893336,7.07626816 L13.7571159,7.0338944 L12.8273148,7.00847296 L12.5,7.003 Z M18.4904027,11.500235 L21.2367554,11.5007264 C21.1581676,10.0231734 20.7328378,8.63763226 20.0406562,7.42399334 L19.4492367,7.37673738 L18.0420876,7.27217217 L17.6382622,7.24385908 C18.1212772,8.55263375 18.4330093,10.0020703 18.4904027,11.500235 Z M8.61511347,3.38872487 L8.45782889,3.45246877 C6.93662182,4.08357876 5.6202854,5.10895172 4.63630157,6.4011057 L5.45352266,6.33596979 L6.77886005,6.23778604 C7.29006644,5.13197892 7.92236467,4.15991742 8.61511347,3.38872487 Z M15.3849331,3.38892901 L15.4256254,3.434387 C16.0972258,4.19228209 16.7104879,5.13903512 17.2095788,6.21284502 L17.6556808,6.24284434 L19.0387213,6.34242274 L19.336885,6.36606763 C18.3219032,5.04626185 16.9587921,4.00808855 15.3849331,3.38892901 Z M11.5007264,2.76324465 C11.278075,2.77508698 11.0575129,2.79480287 10.8393135,2.82211897 C9.80571351,3.37014642 8.74033268,4.57635634 7.92389316,6.16226433 L8.16708471,6.14645221 L9.10505607,6.09294619 L9.92811655,6.05304943 L10.6875215,6.0239185 L11.3794298,6.00606487 L11.5,6.004 Z M12.5002675,2.76329756 L12.5,6.003 L12.839982,6.00854027 L13.4564504,6.0237218 L14.4659253,6.06072324 L15.1954535,6.09487532 L16.0668793,6.14437669 C15.2516495,4.5672875 14.1903966,3.36808738 13.1605907,2.82297947 C12.9428118,2.79484352 12.7225814,2.77514567 12.5002675,2.76329756 Z" id="Combined-Shape-Copy" fill="#000000" fill-rule="nonzero"></path>
    </g>
</svg>