<?xml version="1.0" encoding="UTF-8"?>
<svg width="24px" height="24px" viewBox="0 0 24 24" version="1.1" xmlns="http://www.w3.org/2000/svg" xmlns:xlink="http://www.w3.org/1999/xlink">
    <title>visibility-private</title>
    <g id="visibility-private" stroke="none" stroke-width="1" fill="none" fill-rule="evenodd">
        <path d="M12,1.75 C13.5629662,1.75 14.8372011,2.24140291 15.740166,3.09944461 C16.5926216,3.90948999 17.1234852,5.05421999 17.230116,6.46493966 L17.2457553,6.75060976 L17.2493472,9.5 L18,9.5 C18.6903559,9.5 19.3153559,9.77982203 19.767767,10.232233 C20.1749369,10.639403 20.4423097,11.18637 20.4917126,11.7949611 L20.5,12 L20.5,20 C20.5,20.6903559 20.220178,21.3153559 19.767767,21.767767 C19.360597,22.1749369 18.81363,22.4423097 18.2050389,22.4917126 L18,22.5 L6,22.5 C5.30964406,22.5 4.68464406,22.220178 4.23223305,21.767767 C3.82506313,21.360597 3.5576903,20.81363 3.50828743,20.2050389 L3.5,20 L3.5,12 C3.5,11.3096441 3.77982203,10.6846441 4.23223305,10.232233 C4.63940296,9.82506313 5.18636995,9.5576903 5.79496113,9.50828743 L6,9.5 L6.75,9.5 L6.75,7 C6.75,5.38951356 7.27146368,4.08576937 8.17861652,3.17861652 C9.08576937,2.27146368 10.3895136,1.75 12,1.75 Z M12,4.25 C11.1436659,4.25 10.4586221,4.46193599 9.98993166,4.93062639 C9.5246894,5.39586865 9.28573434,6.09683924 9.25,7.00958584 L9.25,7.00958584 L9.25,9.5 L14.75,9.5 L14.75,7 L14.7443908,6.76388091 C14.7069474,5.9920986 14.4815569,5.37432386 14.0536165,4.94638348 C13.5828821,4.47564905 12.8824481,4.25 12,4.25 Z" id="background" stroke="#FFFFFF" fill="#FFFFFF"></path>
        <rect id="padlock" stroke="#000000" stroke-width="1.5" x="4.75" y="10.75" width="14.5" height="10.5" rx="2"></rect>
        <path d="M8,11 C8,10 8,8.66666667 8,7 C8,4.5 9.5,3 12,3 C14.5,3 16,4.5 16,7 C16,8.66666667 16,10 16,11" id="top-bit" stroke="#000000" stroke-width="1.5"></path>
    </g>
</svg>