<svg id="Layer_1" data-name="Layer 1" xmlns="http://www.w3.org/2000/svg" viewBox="0 0 36 36"><defs><clipPath id="clip-path"><rect y="5" width="36" height="26" rx="4" fill="none"/></clipPath><style>.cls-8{fill:none}.cls-3{fill:#d81e05}.cls-4{fill:#008d46}.cls-5{fill:#fff}.cls-8{stroke:#fc0;stroke-width:.37px}.cls-9{fill:#fc0}</style></defs><g clip-path="url(#clip-path)"><path class="cls-3" d="M32 5H4a4 4 0 0 0-4 4v18a4 4 0 0 0 4 4h28a4 4 0 0 0 4-4V9a4 4 0 0 0-4-4Z"/><path class="cls-4" d="M18 22.5h18v8.9H18Z"/><path class="cls-5" d="M0 13.5h36v9H0Z"/><path class="cls-3" d="m31.8 22-4.1.4-4.1-.3v-8.2h8.2Z"/><path d="M29 16h2.1M30 20.4V15m-1.3 2.2h2.6" stroke-width=".4" stroke="#fff" fill="none"/><path class="cls-4" d="M29.7 20.2a2.8 2.8 0 0 0-.4.4l-.2-.1a.5.5 0 0 0-.4 0 1.7 1.7 0 0 0-.8 1.1l-.2.8 4-.1.3-.7s-.3-.9-.7-1.1a.5.5 0 0 0-.5 0l-.1.1a2 2 0 0 0-.4-.3Z"/><path d="M29.7 14.9h.6m.8.8v.6m-2.2-.7v.7m2.5.5v.6m-2.8-.6v.6" stroke-width=".2" stroke="#fff" fill="none"/><path class="cls-5" d="M23.6 15h4v1h-4Zm0 2h4v1h-4Zm0 2h4v1h-4Zm0 2.2h4v1.3h-4Z"/><path class="cls-8" d="M23.4 13.7v8a.6.6 0 0 0 .6.6h3.3a.2.2 0 0 1 .1 0l.3.4.3-.4a.2.2 0 0 1 .1 0h3.3a.6.6 0 0 0 .6-.7v-7.9Z"/><path class="cls-3" d="m12.4 22-4.1.4-4.1-.3v-8.2h8.2Z"/><path class="cls-8" d="M4 13.7v8a.6.6 0 0 0 .6.6h3.3a.2.2 0 0 1 .1 0l.3.4.3-.4a.2.2 0 0 1 .1 0H12a.6.6 0 0 0 .6-.7v-7.9Z"/><path class="cls-5" d="M4.2 16.6h8.2v2.8H4.2z"/><path class="cls-9" d="m23.3 12 .1-1.2 1 1.4.2-2 1 1.4.2-1.6.5 1.1a2 2 0 0 1 1.1-1.5c0-.5-.2-1.3.7-1.1-.3 1.6.3.6 1 2.6l.6-1.1.3 1.8 1-1.6.2 2 .8-1.3c.3.7-.3 2-.7 2.6-1.3-.8-5.4-1.2-7 0Z"/><path d="M24.3 13.6c-3.2-4.1-.3-5 3.5-5.2 3.6.2 6.6 1.2 3.5 5.2m-3.5-5.2-1-1.6m-.1.7.8-.5" stroke-width=".3" stroke="#fc0" fill="none"/><path class="cls-5" d="M23.5 8.9a.2.2 0 0 1-.4 0 .2.2 0 1 1 .4 0Zm-.9 2.3a.2.2 0 1 1-.4 0 .2.2 0 0 1 .4 0Zm-.1-.9a.2.2 0 1 1-.5 0 .2.2 0 0 1 .5 0Zm.3-.8a.2.2 0 1 1-.5 0 .2.2 0 1 1 .5 0Zm1.6-1a.2.2 0 1 1-.4 0 .2.2 0 1 1 .4 0Zm1-.2a.2.2 0 0 1-.5 0 .2.2 0 0 1 .4 0Zm.8-.2a.2.2 0 0 1-.4 0 .2.2 0 1 1 .4 0Zm1-.1a.2.2 0 0 1-.5 0 .2.2 0 1 1 .4 0Z"/><path id="d" class="cls-5" d="M32 8.9a.2.2 0 0 0 .5 0 .2.2 0 0 0-.5 0Zm.9 2.3a.2.2 0 1 0 .5 0 .2.2 0 0 0-.5 0Zm.1-.9a.2.2 0 1 0 .5 0 .2.2 0 0 0-.5 0Zm-.2-.8a.2.2 0 1 0 .5 0 .2.2 0 1 0-.5 0Zm-1.7-1a.2.2 0 1 0 .5 0 .2.2 0 1 0-.5 0Zm-1-.2a.2.2 0 0 0 .6 0 .2.2 0 0 0-.5 0Zm-.8-.2a.2.2 0 1 0 .5 0 .2.2 0 1 0-.5 0Zm-.9-.1a.2.2 0 0 0 .5 0 .2.2 0 0 0-.5 0Z"/><path class="cls-9" d="M13 11.4c1.2-1.1-.7-2.8-1.3-2.3-.7-1.3-3.8.9-3.3-1.5h.3v-.1h-.3V7h-.2v.5H8v.1h.3c.5 2.4-2.6.2-3.2 1.5-.7-.5-2.6 1.2-1.4 2.3-1.5.4 1.6.9 1.3 2.3 1.2-1.2 5.7-1.2 6.8 0-.2-1.4 2.9-1.8 1.4-2.3Zm-4.7-1.2c.4 0 .4.9 0 .8s-.4-.8 0-.8ZM4.2 12c-.4.6-1-.9-.2-.5a.5.5 0 0 1 .2.5Zm-.2-.8c-.9-.5 0-2 1-1.6.7.8 0 1.8-1 1.6Zm1 .8c-.1.4-.6-.1-.5-.3s.5.1.4.4Zm.6-.3c-.1.3-.6-.1-.5-.4s.6.2.4.4Zm0-.4a.5.5 0 0 1 0-.5c.5-.5.7 1.1 0 .5Zm1 1.4a.5.5 0 0 1-.6 0c-.4-.8 1.5-.6.6 0Zm.4-1.2c-.5.7-1-.5-.6-.9C4 8.5 7 9.3 8.2 9c.1.7-.5 1.4-1.4 1.5a.8.8 0 0 1 0 .9Zm.5 0a.9.9 0 0 1-.3-.8c.5-1 1.3 1.6.2.9Zm.9 1c-.6 0-.6-.5 0-.5s.5.6-.1.6Zm.8-1c-1 .8-.3-1.8.3-.7a.9.9 0 0 1-.3.8Zm.6 0a.8.8 0 0 1 0-.9c-1-.1-1.5-.8-1.3-1.5 1.3.3 4.3-.6 1.8 1.5.4.4-.1 1.6-.6.9Zm1 1.2c-.3.3-1.1 0-.9-.4s1 0 .8.4Zm0-1.4c-.3-.2.1-.9.4-.5s-.3.9-.6.5Zm.7.4c-.4.3-.4-.3-.1-.4s.3.3 0 .4Zm.5.4c-.4.3-.4-.3-.1-.5s.4.3.1.5Zm-.1-1c-.9-.2-.6-1-.2-1.5 1.5-.6 1.8 2.3.2 1.5Zm.9 1c-.5.3-.5-.4-.2-.6s.6.4.2.6Z"/><path class="cls-5" d="M8.6 8.5a.2.2 0 1 0 .5 0 .2.2 0 0 0-.5 0Zm.7 0a.2.2 0 1 0 .5 0 .2.2 0 0 0-.5 0Zm.8-.1a.2.2 0 0 0 .4 0 .2.2 0 1 0-.4 0Zm.8 0a.2.2 0 0 0 .5 0 .2.2 0 1 0-.5 0Zm.7.3a.2.2 0 0 0 .5 0 .2.2 0 0 0-.5 0Zm.9.2a.2.2 0 1 0 .5 0 .2.2 0 0 0-.5 0Zm.8.6a.2.2 0 0 0 .4 0 .2.2 0 1 0-.4 0Zm.2.8a.2.2 0 0 0 .5 0 .2.2 0 1 0-.5 0Zm0 .8a.2.2 0 0 0 .4 0 .2.2 0 0 0-.4 0ZM11.6 13a.2.2 0 1 0 .5 0 .2.2 0 1 0-.5 0Zm0-1.6a.2.2 0 0 0 .5 0 .2.2 0 1 0-.5 0Zm-2.2-.6a.2.2 0 1 0 .5 0 .2.2 0 0 0-.5 0ZM8 8.5a.2.2 0 1 1-.5 0 .2.2 0 0 1 .5 0Zm-.7 0a.2.2 0 1 1-.5 0 .2.2 0 0 1 .5 0Zm-.7-.1a.2.2 0 0 1-.5 0 .2.2 0 1 1 .4 0Zm-.9 0a.2.2 0 0 1-.4 0 .2.2 0 1 1 .4 0Zm-.7.3a.2.2 0 0 1-.5 0 .2.2 0 1 1 .5 0Zm-.9.2a.2.2 0 1 1-.4 0 .2.2 0 0 1 .4 0Zm-.7.6a.2.2 0 0 1-.5 0 .2.2 0 0 1 .4 0Zm-.3.8a.2.2 0 0 1-.5 0 .2.2 0 1 1 .5 0Zm0 .8a.2.2 0 0 1-.4 0 .2.2 0 0 1 .5 0ZM5 13a.2.2 0 1 1-.5 0 .2.2 0 1 1 .5 0Zm0-1.6a.2.2 0 0 1-.5 0 .2.2 0 1 1 .5 0Zm2.3-.6a.2.2 0 0 1-.5 0 .2.2 0 0 1 .4 0Z"/></g></svg>