<svg id="Layer_1" data-name="Layer 1" xmlns="http://www.w3.org/2000/svg" viewBox="0 0 36 36"><defs><clipPath id="clip-path"><rect y="5" width="36" height="26" rx="4" style="fill:none"/></clipPath><style>.cls-6,.cls-7{fill:none;stroke:#000;stroke-miterlimit:3.12;stroke-width:.12px}.cls-7{fill:#fff}</style></defs><g style="clip-path:url(#clip-path)"><path d="M32 5H4a4 4 0 0 0-4 4v18a4 4 0 0 0 4 4h28a4 4 0 0 0 4-4V9a4 4 0 0 0-4-4Z" style="fill:#bf0000"/><path d="M10.57 15.47a12.66 12.66 0 0 0 2.88-.56c-.34-1 2.47-4.69 3.17-4.72-.22-.19-1.27 0-1.23.28a1.55 1.55 0 0 0 0-.48c-.19 0-.71.57-.68.73.13-.1 0-.73-.18-.71s-.22.42-.21.6a.59.59 0 0 0-.17-.52c-.33.16-.34 1.08-.3 1.49 0-.48-.2-1.34-.62-1.49-.19.09-.06.95 0 1a1.37 1.37 0 0 0-.4-.46c-.21.25.26 1.29.43 1.28l-.44-.16a.69.69 0 0 0 .92 1 .76.76 0 1 1-1.4-.54c.71-.51-.68-.81-.23 0-.46 1.5-2.26.83-1.86-.38.55 1 1.29.41 1.87-.36h-.48a1.81 1.81 0 0 0 .85-.52H12c.12 0 .56-.49.52-.64h-.34a1.41 1.41 0 0 0 .27-.95c-.18.27-.43.2-.69 0-.24 0-.58.46-.58.46.21 0 .68-1.43.45-1.59a1.62 1.62 0 0 0-.35.34 1.1 1.1 0 0 0 .06-.6c-.16 0-.64.47-.63.57.14-.09.26-1.1.07-1.25a.73.73 0 0 0-.28.45c.07-.11-.1-.88-.34-.92v.37c-.07-.15-.22-.46-.3-.61a1.62 1.62 0 0 1-.41.59c-.18.1 0 .55-.13.6s-.24-.38-.24-.38c-.44.23.07 1.13.23 1.19L8.39 8l-.07.34-.32.01c-.1.24.57 1.3.81 1.31-.08-.19-1.27-.35-1.34 0 0 .14.32.6.36.58h-.52c0 .18.79.79.81.71l-.68-.12a2.41 2.41 0 0 0 .93.74l-.43-.07c.09.7 1.14 1.16 1.52.29.53 1.15-1.39 2.05-1.63.41.39-.77-.93-.42-.24.06C8 13.51 6 13.69 6 12.73a1 1 0 0 0 1.22-1.16l-.29-.08.18-.21c-.29-.06-.19-.62-.05-.68-.13-.06-.45.23-.42.34.12-.17-.24-.79-.37-.81-.31.12-.34 1.17-.16 1.57a3.93 3.93 0 0 0-.76-1.7c-.11.06-.15.6-.09.66S5 10 5 10s-.2.53-.14.61a2.32 2.32 0 0 0-1.16-.77v.4c0-.16-.78-.31-.9-.09.58-.28 4 4.43 3.49 4.76a12 12 0 0 0 4.28.56Z" style="stroke:#000;stroke-miterlimit:3.12;stroke-width:.12px;fill:#f3c547"/><path d="M9.89 14.09a8.55 8.55 0 0 0-3.58.74v.08h.07a8.28 8.28 0 0 1 3.49-.71 8.25 8.25 0 0 1 3.49.71h.07v-.09a8.51 8.51 0 0 0-3.54-.73Z"/><ellipse cx="9.89" cy="10.47" rx=".54" ry=".52" style="stroke-linecap:round;stroke:#000;stroke-miterlimit:3.12;stroke-width:.12px;fill:none"/><path class="cls-6" d="M4.86 11.89a.4.4 0 0 1 .48.08c.19.24 0 .56 0 .56M14.63 12a.41.41 0 0 0-.49.09c-.19.23.06.56.06.56"/><path class="cls-7" d="M6.57 18.83c.16 0 .14-1.42 0-1.36h2.64v-2.64c-.06.16 1.41.15 1.36 0v2.64h2.64c-.15 0-.15 1.42 0 1.36h-2.64v2.64c0-.15-1.42-.15-1.36 0v-2.64ZM6.57 26.79c.16 0 .14-1.42 0-1.37h2.64v-2.63c-.06.15 1.41.15 1.36 0v2.63h2.64c-.15-.05-.15 1.42 0 1.37h-2.64v2.64c0-.16-1.42-.16-1.36 0v-2.64Z"/></g></svg>