<svg version="1.1" id="Layer_1" xmlns="http://www.w3.org/2000/svg" xmlns:xlink="http://www.w3.org/1999/xlink" x="0" y="0" width="36" height="36" xml:space="preserve"><style>.st1{fill:#fcdd09}.st4{fill:#fff}.st5{fill:#078930}</style><defs><path id="SVGID_1_" d="M32 5H4a4 4 0 0 0-4 4v18a4 4 0 0 0 4 4h28a4 4 0 0 0 4-4V9a4 4 0 0 0-4-4z"/></defs><clipPath id="SVGID_2_"><use xlink:href="#SVGID_1_" overflow="visible"/></clipPath><g clip-path="url(#SVGID_2_)"><path class="st1" d="M0 4.9h39.3V31H0z"/><path fill="#0072bc" d="M0 4.9h13.1V31H0z"/><path fill="#da121a" d="M39.3 10.7V7.8H13.1V4.9h-2.9v26h2.9V28h26.2v-2.9H13.1v-2.8h26.2v-2.9H13.1v-2.9h26.2v-2.9H13.1v-2.9z"/><path class="st1" d="M4.3 30c.8.1 0-.9-.3-.3-.1 2.4 2.7-.4 2.1-1.1-.1 0-1.3 2.7-1.8 1.4zM4.3 24.3C4.8 23 6 25.6 6 25.6c.6-.7-2.1-3.5-2.1-1.1.4.7 1.2-.3.4-.2zM3.9 20.4c0 2.4 2.7-.4 2.1-1.1 0 0-1.2 2.6-1.7 1.4.8.1 0-.9-.4-.3zM6 16.3c.6-.7-2.1-3.5-2.1-1.1.3.6 1.1-.4.3-.3.6-1.2 1.8 1.4 1.8 1.4zM3.9 11.2c-.1 2.4 2.7-.4 2.1-1.1 0 0-1.2 2.6-1.7 1.4.7 0-.1-.9-.4-.3zM4.3 5.7C4.8 4.5 6 7.1 6 7.1c.6-.6-2.1-3.5-2.1-1.1.4.6 1.1-.3.4-.3zM9.3 29.6c-.2-.4-1.3-.9-.7-.2l-.6.2s.4.3.6.2c-.6.7.5.2.7-.2.2.1.5.2.6.6v-1.1c-.2.3-.4.4-.6.5zm-.4 0zm.4 0zM9.3 10.9c-.1-.3-1.3-.9-.7-.2-.3 0-.6.3-.6.3s.4.3.6.2c-.6.7.5.2.7-.2.2.1.5.2.6.6v-1.1c-.1.2-.4.4-.6.4zm-.4.1zm.4 0zM9.3 24.6c-.1-.4-1.3-.9-.7-.2-.3-.1-.6.2-.6.2s.4.3.6.2c-.6.7.5.2.7-.1h-.4l.4-.1zM9.3 20.2c-.2-.3-1.3-.9-.7-.2-.3 0-.6.3-.6.3s.4.3.6.2c-.6.7.5.2.7-.2.2.1.5.3.6.6v-1.2c-.1.3-.4.5-.6.5zm-.5.1zm.5 0zM9.3 6.1c-.2-.4-1.3-.9-.7-.2l-.6.2s.4.3.6.2c-.6.8.6.3.7-.1h-.4l.4-.1z"/><path class="st1" d="M9.9 4.8v.7c-.1.3-.4.5-.6.6v.2l.6.4v.7c-2.4 3.1-2-1.9-2.6-.4-1.7-1.3-1.1.4-.4 1.2l-1.2-.9c.1 1.9-1.3.2-.9.5.7-.5-1.1-.5-.1.4-1.1-.5-1.1 1.2 0 .8-1 1 .8.9.1.4-.4.3 1-1.4.9.5L6.9 9c-.6.8-1.3 2.4.5 1.2.6 1.5.1-3.4 2.5-.4v.6l.1-.1v1.3-.1.6c-.3.9-1.2.9-1.2.9.2-.3.3-.6-.1-1 .4 1-.2-.2-.7-.1l.1.3c-.8-.7-.4 0-.3.4-.5-.6-1.2.2-1.8.4l-.1-.1-.1.1a.8.8 0 0 1-.4-.2c-.1-.7.1-.4.3-.2.4-.2.1-.6-.2-.5-.6.6-.2.9.3.9v.1c-.3-.2-1.1-.2-1.3.1.2.3.9.3 1.3.2v.1c-.5-.1-.9 0-.3.9.8.3.1-1 .1-.2-.3-.6-.1-.7.2-.6v.1-.1c.6.1 1.5.5 1.9.3-.2.4-.4 1 .3.3v.2c.5.1 1.1-1 .7-.1.4-.3.3-.7.1-1 0 0 .8.1 1.1.8v.6c-.1.3-.4.5-.6.6-.2-.3-1.3-.8-.7-.1-.3-.1-.6.2-.6.2s.4.3.6.2c-.6.8.6.2.7-.2.2.1.5.2.6.4v.7c-2.4 3-2-1.9-2.5-.4-1.8-1.2-1.1.5-.5 1.2l-1.2-.9c0 1.2-.8 1.1-1 .2.9.3-1-.8 0 .6a.5.5 0 0 0 0 .9c-1 1 .8.9.1.4-.4.2 1-1.5.9.5l1.1-.9c-.6.8-1.3 2.4.5 1.2.7 1.7.2-3.2 2.6-.3v2.6c-.2.7-1 .8-1 .8.2-.3.3-.6-.1-1 .3.9-.2-.3-.7-.1l.1.3c-.8-.7-.4 0-.3.4-.5-.7-1.2.1-1.9.2l-.1-.1-.1.1a.8.8 0 0 1-.4-.2c-.2-1 .4.3.5-.5-.7-.4-.8.4-.4.7l.3.1-.3-.2c-.4-.1-.9 0-1 .2.2.2.7.3 1.1.2l.2-.1h-.2c-.5.3-.5 1.3.3.8.1-.3-.5-.5-.3-.1-.3-.6-.1-.7.2-.6v.1-.1c.6.1 1.5.5 1.9.3-.2.4-.4 1 .3.3v.6c.5.1 1.1-1 .7-.1.4-.3.3-.7.1-1 0 0 .8.1 1 .8v.6c-.1.3-.4.5-.6.6v.1c.2.1.5.2.6.4v.7c-2.4 3-2-1.9-2.5-.4-.4-.3-.7-.4-.9-.4-.3 0-.2.5 0 1v.4l-.7-.6v.3l-.1-.1v.6c-.3.7-1.2-.5-.9-.2.7-.5-1.1-.5-.1.4a.5.5 0 0 0 0 .9c-1 1 .8.9.1.4-.3.2.6-.9.9-.2v.5l.1-.1v.3l.7-.6v.4c-.2.5-.3.9 0 .9.2 0 .5-.1.9-.4.6 1.5.1-3.4 2.5-.4v.8l.1-.1v1.3-.1.6h.3V4.8h-.3zM7 12.6zM6 13c.3 0 .7-.1.9-.3l.1.1-.2.2c-.1.1-.2.2 0 .4l.1.1-.1.1-1-.2c.2-.1.2-.3.2-.4zm2.4-4.4s1.2-.5 1.5-.8v1.7c-.3-.5-1.4-.8-1.5-.9zm.7 4.6s.7-.2.7-.5v-.4 1.6c0-.4-.6-.7-.7-.7zm-.7 4.6s1.1-.4 1.5-.7v1.6c-.4-.5-1.3-.8-1.5-.9zM6 22.5v-.2h.1l.8-.3.1.1-.1.1-.1.1-.1.1.1.1.1.2v.1l-.1.1-.8-.4c.1.1 0 .1 0 0zm3.2-.1s.7-.2.7-.5V23l-.7-.6zm-.8 4.7s1.1-.4 1.5-.8v1.6c-.4-.4-1.4-.7-1.5-.8z"/><path class="st4" d="M12 29.5c0 .2-.2.4-.4.4a.4.4 0 0 1-.4-.4c0-.2.2-.4.4-.4s.4.2.4.4zM12 23.7c0 .2-.2.4-.4.4a.4.4 0 0 1-.4-.4c0-.2.2-.4.4-.4s.4.2.4.4zM12 17.9c0 .2-.2.4-.4.4a.4.4 0 0 1-.4-.4c0-.2.2-.4.4-.4s.4.2.4.4zM12 12.1c0 .2-.2.4-.4.4a.4.4 0 0 1-.4-.4c0-.2.2-.4.4-.4s.4.2.4.4zM12 6.3c0 .2-.2.4-.4.4a.4.4 0 0 1-.4-.4c0-.2.2-.4.4-.4s.4.2.4.4z"/><g><path class="st1" d="m11.2 8.9.1-.2-.2.1-.1.1c0 .1.1 0 .2 0zM11 9.6l.1.2.2.1-.1-.2-.2-.1zM11.8 8.4l-.2-.1-.2.1.2.1.2-.1zM12.1 8.9l-.1-.2-.2-.1.1.2.2.1zM10.7 9.2s-.1.1 0 0c-.1.1 0 .1 0 0l.1.3.1-.2-.1-.2c-.1-.1-.1 0-.1.1zM12.5 9.2l-.1-.2-.1.2.1.2.1-.2c0 .1 0 0 0 0zM10.9 9.3l.7.7.7-.7-.7-.7-.7.7zm.9-.5V9h.2l.2.2-.2.3h-.2v.2l-.2.2-.2-.2v-.2h-.2l-.2-.2.1-.3h.2v-.2l.2-.2.3.2zM12 9.6l-.1.2.2-.1.1-.2-.2.1zM11.4 10.1l.2.1.2-.1-.2-.1-.2.1z"/></g><path class="st1" d="m11.4 16 .1.1.1-.1-.1-.1-.1.1zm0-2 .1.1.1-.1-.1-.1-.1.1zm.7 1c0 .5-.2.9-.5.9s-.5-.4-.5-.9.2-.9.5-.9c.2 0 .5.4.5.9zm.1 0s0-.1 0 0c-.1-.1-.1 0-.1 0s0 .1.1 0c0 .1 0 0 0 0zm-1.1 0s-.1-.1 0 0c-.1-.1-.1 0-.1 0-.1 0 0 .1.1 0-.1.1 0 0 0 0zm.9.8c0-.1 0-.1 0 0-.1-.1-.1 0-.1 0h.1zm-.7 0c0-.1 0-.1 0 0-.1-.1-.1 0-.1 0h.1zm-.2-.4-.1-.1-.1.1.1.1.1-.1zm1.2 0-.1-.1-.1.1.1.1.1-.1zm-1.1-1.2c0 .1 0 .1 0 0 .1.1.1 0 .1 0h-.1zm.7 0c0 .1 0 .1 0 0 .1.1.1 0 .1 0h-.1zm.1.4.1.1.1-.1-.1-.1-.1.1zm-1.2 0 .1.1.1-.1v-.1l-.2.1z"/><path class="st5" d="M12 15c0-.4-.2-.7-.4-.8v.1-.1c-.2 0-.4.4-.4.8s.2.7.4.8v-.1.1c.2-.1.4-.4.4-.8z"/><path class="st1" d="m11.4 27.5.1.1.1-.1-.1-.1-.1.1zm0-2 .1.1.1-.1-.1-.1-.1.1zm.7 1c0 .5-.2.9-.5.9s-.5-.4-.5-.9.2-.9.5-.9c.2 0 .5.4.5.9zm.1 0s0-.1 0 0c-.1-.1-.1 0-.1 0s0 .1.1 0c0 .1 0 0 0 0zm-1.1 0s-.1-.1 0 0c-.1-.1-.1 0-.1 0-.1 0 0 .1.1 0-.1.1 0 0 0 0zm.9.7c-.1-.1-.1 0-.1 0 0 .1 0 .1.1 0 0 .1 0 .1 0 0zm-.7 0c-.1-.1-.1 0-.1 0 0 .1 0 .1.1 0 0 .1 0 .1 0 0zm-.2-.3-.1-.1-.1.1.1.1.1-.1zm1.2 0-.1-.1-.1.1.1.1.1-.1zm-1.1-1.2c0 .1 0 .1 0 0 .1.1.1 0 .1 0h-.1zm.7 0c0 .1 0 .1 0 0 .1.1.1 0 .1 0h-.1zm.1.4.1.1.1-.1V26l-.2.1zm-1.2 0 .1.1.1-.1c.1-.1 0-.1 0-.1l-.2.1z"/><path class="st5" d="M12 26.5c0-.4-.2-.7-.4-.8v.1-.1c-.2 0-.4.4-.4.8s.2.7.4.8v-.1.1c.2-.1.4-.4.4-.8z"/><g><path class="st1" d="M10.7 20.8s-.1 0 0 0c-.1 0 0 .1 0 0l.1.3.1-.2-.1-.2c-.1-.1-.1 0-.1.1zM11.8 20l-.2-.1-.2.1.2.1.2-.1zM11.2 20.4l.1-.2-.2.1-.1.2.2-.1zM12.1 20.5l-.1-.2-.2-.1.1.2.2.1zM11.4 21.6l.2.1.2-.1-.2-.1-.2.1zM12 21.2l-.1.2.2-.1.1-.2-.2.1zM11 21.1l.1.2.2.1-.1-.2-.2-.1zM12.3 20.8l-.7-.7-.7.7.7.7.7-.7zm-1 .5V21h-.2l-.2-.2.2-.2h.2v-.2l.2-.2.2.2v.2h.3l.2.2-.2.2h-.2v.2l-.2.2-.3-.1z"/></g><path class="st1" d="m12.4 20.6.1.2-.1.2-.1-.2.1-.2z"/></g></svg>