<svg data-name="Layer 1" xmlns="http://www.w3.org/2000/svg" viewBox="0 0 36 36"><defs><clipPath id="a"><rect y="5" width="36" height="26" rx="4" style="fill:none"/></clipPath></defs><g style="clip-path:url(#a)"><path d="M32 5H4a4 4 0 0 0-4 4v18a4 4 0 0 0 4 4h28a4 4 0 0 0 4-4V9a4 4 0 0 0-4-4Z" style="fill:#003893"/><path d="M0 18h36v13.2H0Z" style="fill:#de0000"/><path d="M0 13.68h36v8.64H0Z" style="fill:#fff"/><path d="m18 10 1.81 5.55h5.84L20.92 19l1.81 5.56L18 21.07l-4.73 3.44L15.08 19l-4.73-3.43h5.84Z" style="stroke:#fcd115;stroke-width:.47px;fill-rule:evenodd;fill:#de0000"/></g></svg>