<?xml version="1.0" encoding="UTF-8"?>
<svg width="24px" height="24px" viewBox="0 0 24 24" version="1.1" xmlns="http://www.w3.org/2000/svg" xmlns:xlink="http://www.w3.org/1999/xlink">
    <title>vote-pending</title>
    <defs>
        <path d="M12,1 C15.3137085,1 18,3.6862915 18,7 C18,7.3458753 17.970734,7.68491515 17.9145432,8.01477832 C18.6188824,8.09579758 19.2351825,8.54875918 19.5194977,9.2121614 L21.919145,14.8113384 C21.9724923,14.9358153 22,15.0698309 22,15.2052577 L22,21 C22,22.1045695 21.1045695,23 20,23 L4,23 C2.8954305,23 2,22.1045695 2,21 L2,15.2052577 C2,15.0698309 2.02750775,14.9358153 2.08085497,14.8113384 L4.48050226,9.2121614 C4.7648175,8.54875918 5.38111764,8.09579758 6.08642595,8.01349454 C6.02926602,7.68491515 6,7.3458753 6,7 C6,3.6862915 8.6862915,1 12,1 Z" id="path-1"></path>
        <filter x="-7.5%" y="-6.8%" width="115.0%" height="113.6%" filterUnits="objectBoundingBox" id="filter-2">
            <feMorphology radius="0.5" operator="dilate" in="SourceAlpha" result="shadowSpreadOuter1"></feMorphology>
            <feOffset dx="0" dy="0" in="shadowSpreadOuter1" result="shadowOffsetOuter1"></feOffset>
            <feColorMatrix values="0 0 0 0 1   0 0 0 0 1   0 0 0 0 1  0 0 0 0.5 0" type="matrix" in="shadowOffsetOuter1"></feColorMatrix>
        </filter>
    </defs>
    <g id="vote-pending" stroke="none" stroke-width="1" fill="none" fill-rule="evenodd">
        <g id="shadow" fill="black" fill-opacity="1">
            <use filter="url(#filter-2)" xlink:href="#path-1"></use>
        </g>
        <g id="box" transform="translate(2.000000, 8.000000)" stroke="#000000" stroke-width="1.5">
            <path d="M15.6812077,0.75 C15.9312253,0.75 16.1692147,0.824499017 16.3693214,0.956448635 C16.5694282,1.08839825 16.7316522,1.27779847 16.830139,1.50760088 L16.830139,1.50760088 L19.1711551,6.96997187 L19.25,13 C19.25,13.345178 19.110089,13.657678 18.8838835,13.8838835 C18.657678,14.110089 18.345178,14.25 18,14.25 L18,14.25 L2,14.25 C1.65482203,14.25 1.34232203,14.110089 1.11611652,13.8838835 C0.889911016,13.657678 0.75,13.345178 0.75,13 L0.75,13 L0.75,7.35433189 L3.16986103,1.50760088 C3.26834777,1.27779847 3.43057181,1.08839825 3.63067856,0.956448635 C3.8307853,0.824499017 4.06877475,0.75 4.31879232,0.75 L4.31879232,0.75 Z" id="box-outline" fill="#FFFFFF"></path>
            <line x1="1" y1="7" x2="19" y2="7" id="box-seam"></line>
        </g>
        <circle id="Oval" stroke="#000000" stroke-width="1.5" fill="#FFFFFF" cx="12" cy="7" r="5.25"></circle>
        <polyline id="Path-18" stroke="#000000" points="12 3.5 12 7 14 9"></polyline>
    </g>
</svg>