<?xml version="1.0" encoding="UTF-8"?>
<svg width="24px" height="24px" viewBox="0 0 24 24" version="1.1" xmlns="http://www.w3.org/2000/svg" xmlns:xlink="http://www.w3.org/1999/xlink">
    <title>vote-results</title>
    <g id="vote-results" stroke="none" stroke-width="1" fill="none" fill-rule="evenodd">
        <polygon id="shadow" fill-opacity="0.5" fill="#FFFFFF" fill-rule="nonzero" points="15 7 21 7 21 19.75 23 19.75 23 23.25 1 23.25 1 19.75 3 19.75 3 10 9 10 9 2 15 2"></polygon>
        <path d="M22,20.75 L22,22.25 L2,22.25 L2,20.75 L22,20.75 Z M8,11 L8,20 L4,20 L4,11 L8,11 Z M14,3 L14,20 L10,20 L10,3 L14,3 Z M20,8 L20,20 L16,20 L16,8 L20,8 Z" id="Combined-Shape" fill="#000000" fill-rule="nonzero"></path>
    </g>
</svg>